<svg preserveAspectRatio="none" width="100%" height="100%" overflow="visible" style="display: block;" viewBox="0 0 24 24" fill="none" xmlns="http://www.w3.org/2000/svg">
<g id="Frame">
<path id="Vector" d="M8.663 20.903C6.97608 20.2721 5.50154 19.1778 4.409 17.746C3.31945 16.3173 2.6575 14.6088 2.5 12.819H6.593C6.57795 15.6466 7.29081 18.4306 8.663 20.903ZM15.774 12.819C15.602 17.972 13.714 21.502 12.01 21.502C10.304 21.502 8.417 17.972 8.244 12.819H15.774ZM21.5 12.819C21.346 14.6113 20.6841 16.3225 19.592 17.752C18.4974 19.1846 17.0188 20.2772 15.328 20.903C16.7077 18.4332 17.424 15.648 17.407 12.819H21.5ZM21.5 11.185H17.407C17.4257 8.35564 16.709 5.56997 15.327 3.101C17.0186 3.72576 18.498 4.81815 19.593 6.251C20.6853 7.68062 21.3469 9.39234 21.5 11.185ZM15.774 11.185H8.244C8.417 6.022 10.304 2.502 12.009 2.502C13.714 2.502 15.592 6.022 15.774 11.185ZM8.663 3.147C7.28921 5.61878 6.57624 8.40315 6.593 11.231H2.5C2.65437 9.43973 3.31546 7.72941 4.406 6.3C5.49867 4.86775 6.97462 3.77422 8.663 3.146V3.147Z" fill="var(--fill-0, #C5C7CA)"/>
</g>
</svg>
