<svg preserveAspectRatio="none" width="100%" height="100%" overflow="visible" style="display: block;" viewBox="0 0 16 16" fill="none" xmlns="http://www.w3.org/2000/svg">
<g id="Frame">
<path id="Vector" fill-rule="evenodd" clip-rule="evenodd" d="M2.905 5.205C2.97 5.13999 3.04717 5.08842 3.13211 5.05324C3.21704 5.01806 3.30807 4.99995 3.4 4.99995C3.49193 4.99995 3.58296 5.01806 3.66789 5.05324C3.75283 5.08842 3.83 5.13999 3.895 5.205L8 9.31L12.105 5.205C12.17 5.14 12.2472 5.08843 12.3321 5.05325C12.417 5.01807 12.5081 4.99996 12.6 4.99996C12.6919 4.99996 12.783 5.01807 12.8679 5.05325C12.9528 5.08843 13.03 5.14 13.095 5.205C13.16 5.27 13.2116 5.34718 13.2467 5.43211C13.2819 5.51704 13.3 5.60807 13.3 5.7C13.3 5.79193 13.2819 5.88296 13.2467 5.96789C13.2116 6.05282 13.16 6.13 13.095 6.195L8.495 10.795C8.43 10.86 8.35283 10.9116 8.26789 10.9468C8.18296 10.9819 8.09193 11.0001 8 11.0001C7.90807 11.0001 7.81704 10.9819 7.73211 10.9468C7.64717 10.9116 7.57 10.86 7.505 10.795L2.905 6.195C2.83999 6.13 2.78842 6.05283 2.75324 5.9679C2.71806 5.88296 2.69995 5.79193 2.69995 5.7C2.69995 5.60807 2.71806 5.51704 2.75324 5.43211C2.78842 5.34717 2.83999 5.27 2.905 5.205Z" fill="var(--fill-0, white)"/>
</g>
</svg>
