<svg preserveAspectRatio="none" width="100%" height="100%" overflow="visible" style="display: block;" viewBox="0 0 24 24" fill="none" xmlns="http://www.w3.org/2000/svg">
<g id="Frame">
<path id="Vector" fill-rule="evenodd" clip-rule="evenodd" d="M19.094 13.49C17.8601 13.49 16.6408 13.224 15.519 12.7102C14.3972 12.1963 13.3994 11.4467 12.5936 10.5123C11.7877 9.57797 11.1927 8.48086 10.8492 7.29578C10.5057 6.11069 10.4217 4.86548 10.603 3.645C10.658 3.268 10.342 2.925 9.971 3.015C7.98328 3.49695 6.21526 4.63307 4.95099 6.24084C3.68672 7.84861 2.99959 9.83469 3 11.88C2.99715 14.1134 3.81394 16.2702 5.2955 17.9415C6.77706 19.6128 8.82038 20.6823 11.038 20.9472C13.2557 21.2122 15.4934 20.6542 17.327 19.379C19.1606 18.1039 20.4626 16.2002 20.986 14.029C21.076 13.658 20.732 13.342 20.355 13.397C19.9378 13.4585 19.5167 13.4893 19.095 13.489L19.094 13.49Z" fill="var(--fill-0, #C5C7CA)"/>
</g>
</svg>
