<svg preserveAspectRatio="none" width="100%" height="100%" overflow="visible" style="display: block;" viewBox="0 0 24 24" fill="none" xmlns="http://www.w3.org/2000/svg">
<g id="Frame">
<path id="Vector" d="M9.792 2.884C9.925 2.489 10.224 2.151 10.636 2.094C11.5404 1.96921 12.4575 1.96887 13.362 2.093C13.774 2.149 14.074 2.488 14.207 2.883C14.5178 3.80679 15.1552 4.58532 15.9994 5.07236C16.8437 5.5594 17.8367 5.72142 18.792 5.528C19.201 5.446 19.644 5.536 19.9 5.866C20.4592 6.58819 20.9168 7.38359 21.26 8.23C21.417 8.615 21.273 9.043 20.998 9.355C20.3533 10.0858 19.9977 11.0269 19.9981 12.0014C19.9985 12.9759 20.3548 13.9167 21 14.647C21.275 14.959 21.418 15.387 21.262 15.773C20.917 16.618 20.459 17.413 19.899 18.134C19.643 18.464 19.199 18.554 18.792 18.471C17.8369 18.2783 16.8443 18.4406 16.0004 18.9276C15.1564 19.4146 14.5191 20.1927 14.208 21.116C14.075 21.51 13.776 21.848 13.364 21.906C12.46 22.031 11.5432 22.0317 10.639 21.908C10.226 21.852 9.926 21.513 9.793 21.118C9.48243 20.1942 8.84528 19.4156 8.00122 18.9284C7.15716 18.4412 6.16426 18.2789 5.209 18.472C4.8 18.554 4.357 18.464 4.101 18.134C3.54145 17.4119 3.08352 16.6165 2.74 15.77C2.583 15.385 2.727 14.957 3.002 14.645C3.64688 13.9143 4.00259 12.9732 4.00222 11.9986C4.00185 11.0241 3.64544 10.0832 3 9.353C2.724 9.041 2.582 8.613 2.738 8.228C3.08264 7.38206 3.54158 6.58733 4.102 5.866C4.357 5.538 4.8 5.447 5.208 5.53C6.16339 5.72305 7.15639 5.56061 8.00047 5.0732C8.84455 4.58579 9.48162 3.80696 9.792 2.883V2.884ZM12.001 15C12.3995 15.0073 12.7955 14.9351 13.1658 14.7876C13.536 14.6401 13.8732 14.4203 14.1576 14.1411C14.442 13.8618 14.6679 13.5287 14.8221 13.1612C14.9763 12.7937 15.0558 12.3991 15.0558 12.0005C15.0558 11.6019 14.9763 11.2073 14.8221 10.8398C14.6679 10.4723 14.442 10.1392 14.1576 9.8599C13.8732 9.58065 13.536 9.36087 13.1658 9.2134C12.7955 9.06593 12.3995 8.99372 12.001 9.001C11.215 9.01535 10.466 9.33768 9.91517 9.89863C9.36437 10.4596 9.05577 11.2143 9.05577 12.0005C9.05577 12.7867 9.36437 13.5414 9.91517 14.1024C10.466 14.6633 11.215 14.9856 12.001 15Z" fill="var(--fill-0, #C5C7CA)"/>
</g>
</svg>
