<svg preserveAspectRatio="none" width="100%" height="100%" overflow="visible" style="display: block;" viewBox="0 0 66 66" fill="none" xmlns="http://www.w3.org/2000/svg">
<path id="Vector" d="M39.6382 25.0031C38.7636 23.2965 37.1209 22.2689 35.3716 22.3365H30.6284C28.0116 22.3365 25.8889 24.7187 25.8889 27.6698C25.8889 30.6102 28.0116 32.9996 30.6284 32.9996H35.3716C37.9884 32.9996 40.1111 35.3854 40.1111 38.3329C40.1111 41.2769 37.9884 43.6627 35.3716 43.6627H30.6284C28.8791 43.7302 27.2364 42.7027 26.3618 40.996M33 15.2222V22.3333M33 43.6667V50.7778M11.6667 11.6667L17 17M49 49L54.3333 54.3333M1 33C1 37.2023 1.8277 41.3635 3.43585 45.2459C5.04401 49.1283 7.40111 52.6559 10.3726 55.6274C13.3441 58.5989 16.8717 60.956 20.7541 62.5641C24.6365 64.1723 28.7977 65 33 65C37.2023 65 41.3635 64.1723 45.2459 62.5641C49.1283 60.956 52.6559 58.5989 55.6274 55.6274C58.5989 52.6559 60.956 49.1283 62.5641 45.2459C64.1723 41.3635 65 37.2023 65 33C65 28.7977 64.1723 24.6365 62.5641 20.7541C60.956 16.8717 58.5989 13.3441 55.6274 10.3726C52.6559 7.40111 49.1283 5.04401 45.2459 3.43586C41.3635 1.8277 37.2023 1 33 1C28.7977 1 24.6365 1.8277 20.7541 3.43586C16.8717 5.04401 13.3441 7.40111 10.3726 10.3726C7.40111 13.3441 5.04401 16.8717 3.43585 20.7541C1.8277 24.6365 1 28.7977 1 33Z" stroke="var(--stroke-0, #0266FF)" stroke-width="2" stroke-linecap="round" stroke-linejoin="round"/>
</svg>
