<svg preserveAspectRatio="none" width="100%" height="100%" overflow="visible" style="display: block;" viewBox="0 0 24 24" fill="none" xmlns="http://www.w3.org/2000/svg">
<g id="Frame">
<path id="Vector" d="M18.957 5.637C18.9515 5.62615 18.9423 5.61764 18.931 5.613C17.6343 5.01774 16.2659 4.59319 14.86 4.35C14.8472 4.34744 14.834 4.34896 14.8222 4.35435C14.8103 4.35973 14.8005 4.36871 14.794 4.38C14.608 4.719 14.439 5.066 14.288 5.421C12.7724 5.19089 11.2306 5.19089 9.715 5.421C9.5629 5.06515 9.39131 4.71796 9.201 4.381C9.19446 4.36973 9.18464 4.36072 9.17285 4.35518C9.16105 4.34964 9.14785 4.34783 9.135 4.35C7.72936 4.59245 6.36122 5.01668 5.065 5.612C5.05345 5.61648 5.04364 5.62454 5.037 5.635C2.444 9.507 1.734 13.284 2.083 17.014C2.08392 17.0232 2.08669 17.0321 2.09116 17.0402C2.09563 17.0483 2.1017 17.0553 2.109 17.061C3.61879 18.1787 5.30748 19.0319 7.103 19.584C7.11562 19.5877 7.12908 19.5875 7.14157 19.5834C7.15407 19.5793 7.16503 19.5715 7.173 19.561C7.559 19.036 7.9 18.481 8.195 17.9C8.20107 17.8879 8.20308 17.8742 8.20074 17.8609C8.1984 17.8475 8.19183 17.8353 8.182 17.826C8.17571 17.8199 8.16822 17.8151 8.16 17.812C7.62117 17.6056 7.09953 17.3568 6.6 17.068C6.58625 17.06 6.57598 17.0472 6.57117 17.032C6.56636 17.0169 6.56737 17.0005 6.574 16.986C6.57858 16.9765 6.58545 16.9682 6.594 16.962C6.69917 16.8834 6.80253 16.8024 6.904 16.719C6.91291 16.7119 6.92359 16.7074 6.93488 16.706C6.94617 16.7046 6.95762 16.7063 6.968 16.711C10.241 18.204 13.785 18.204 17.019 16.711C17.0295 16.7061 17.0412 16.7043 17.0526 16.7057C17.0641 16.7071 17.075 16.7117 17.084 16.719C17.186 16.802 17.29 16.884 17.395 16.962C17.4034 16.9683 17.4101 16.9765 17.4146 16.986C17.4191 16.9954 17.4212 17.0059 17.4207 17.0163C17.4202 17.0268 17.4171 17.037 17.4118 17.046C17.4064 17.055 17.399 17.0626 17.39 17.068C16.8915 17.3591 16.3693 17.6076 15.829 17.811C15.8205 17.8142 15.8129 17.8191 15.8065 17.8255C15.8001 17.8319 15.7952 17.8395 15.792 17.848C15.7888 17.8564 15.7875 17.8654 15.788 17.8743C15.7885 17.8833 15.7909 17.892 15.795 17.9C16.094 18.477 16.435 19.032 16.815 19.56C16.8226 19.5709 16.8335 19.5791 16.8461 19.5834C16.8587 19.5877 16.8723 19.5879 16.885 19.584C18.6841 19.0338 20.376 18.1805 21.888 17.061C21.8954 17.0556 21.9015 17.0487 21.906 17.0408C21.9105 17.0329 21.9132 17.0241 21.914 17.015C22.331 12.702 21.215 8.956 18.957 5.635V5.637ZM8.683 14.744C7.698 14.744 6.886 13.839 6.886 12.729C6.886 11.618 7.682 10.714 8.683 10.714C9.693 10.714 10.496 11.626 10.481 12.729C10.481 13.839 9.685 14.744 8.683 14.744ZM15.329 14.744C14.344 14.744 13.532 13.839 13.532 12.729C13.532 11.618 14.328 10.714 15.329 10.714C16.339 10.714 17.142 11.626 17.126 12.729C17.126 13.839 16.338 14.744 15.329 14.744Z" fill="var(--fill-0, #C5C7CA)"/>
</g>
</svg>
