<svg preserveAspectRatio="none" width="100%" height="100%" overflow="visible" style="display: block;" viewBox="0 0 66 66" fill="none" xmlns="http://www.w3.org/2000/svg">
<path id="Vector" d="M53 17V5C53 3.93913 52.5786 2.92172 51.8284 2.17157C51.0783 1.42143 50.0609 1 49 1H9C6.87827 1 4.84344 1.84285 3.34315 3.34315C1.84285 4.84344 1 6.87827 1 9M1 9C1 11.1217 1.84285 13.1566 3.34315 14.6569C4.84344 16.1571 6.87827 17 9 17H57C58.0609 17 59.0783 17.4214 59.8284 18.1716C60.5786 18.9217 61 19.9391 61 21V33M1 9V57C1 59.1217 1.84285 61.1566 3.34315 62.6569C4.84344 64.1571 6.87827 65 9 65H57C58.0609 65 59.0783 64.5786 59.8284 63.8284C60.5786 63.0783 61 62.0609 61 61V49M65 33V49H49C46.8783 49 44.8434 48.1571 43.3431 46.6569C41.8429 45.1566 41 43.1217 41 41C41 38.8783 41.8429 36.8434 43.3431 35.3431C44.8434 33.8429 46.8783 33 49 33H65Z" stroke="var(--stroke-0, #0266FF)" stroke-width="2" stroke-linecap="round" stroke-linejoin="round"/>
</svg>
