<svg preserveAspectRatio="none" width="100%" height="100%" overflow="visible" style="display: block;" viewBox="0 0 33 34" fill="none" xmlns="http://www.w3.org/2000/svg">
<path id="Vector" d="M16.5015 22.4645C13.6324 22.4645 10.8808 21.3338 8.85205 19.3211C6.82329 17.3084 5.68355 14.5786 5.68355 11.7323C5.68355 8.88588 6.82329 6.15609 8.85205 4.1434C10.8808 2.13072 13.6324 1 16.5015 1C19.3706 1 22.1222 2.13072 24.1509 4.1434C26.1797 6.15609 27.3194 8.88588 27.3194 11.7323C27.3194 14.5786 26.1797 17.3084 24.1509 19.3211C22.1222 21.3338 19.3706 22.4645 16.5015 22.4645ZM16.5015 22.4645L22.6317 33L25.5128 27.2171L32 27.6321L25.8698 17.0984M7.13017 17.0984L1 27.6339L7.48716 27.2171L10.3683 32.9982L16.4985 22.4645" stroke="var(--stroke-0, #0266FF)" stroke-width="2" stroke-linecap="round" stroke-linejoin="round"/>
</svg>
