<svg preserveAspectRatio="none" width="100%" height="100%" overflow="visible" style="display: block;" viewBox="0 0 38 34" fill="none" xmlns="http://www.w3.org/2000/svg">
<path id="Vector" d="M31 8.96765C32.5913 8.96765 34.1174 9.60064 35.2426 10.7274C36.3679 11.8541 37 13.3823 37 14.9757C37 16.5692 36.3679 18.0974 35.2426 19.2241C34.1174 20.3508 32.5913 20.9838 31 20.9838M15 8.96765V30.9973C15 31.5285 14.7893 32.0378 14.4142 32.4134C14.0391 32.789 13.5304 33 13 33H11C10.4696 33 9.96086 32.789 9.58579 32.4134C9.21071 32.0378 9 31.5285 9 30.9973V20.9838M19 8.96765L28.048 1.41749C28.3109 1.19821 28.6308 1.05851 28.9701 1.01476C29.3095 0.971006 29.6543 1.02502 29.9641 1.17046C30.2739 1.3159 30.5359 1.54675 30.7194 1.83595C30.9028 2.12516 31.0002 2.46073 31 2.80335V27.1481C31.0002 27.4907 30.9028 27.8263 30.7194 28.1155C30.5359 28.4047 30.2739 28.6356 29.9641 28.781C29.6543 28.9265 29.3095 28.9805 28.9701 28.9367C28.6308 28.893 28.3109 28.7533 28.048 28.534L19 20.9838H3C2.46957 20.9838 1.96086 20.7728 1.58579 20.3973C1.21071 20.0217 1 19.5123 1 18.9811V10.9703C1 10.4392 1.21071 9.92981 1.58579 9.55423C1.96086 9.17865 2.46957 8.96765 3 8.96765H19Z" stroke="var(--stroke-0, #0266FF)" stroke-width="2" stroke-linecap="round" stroke-linejoin="round"/>
</svg>
