<svg preserveAspectRatio="none" width="100%" height="100%" overflow="visible" style="display: block;" viewBox="0 0 24 24" fill="none" xmlns="http://www.w3.org/2000/svg">
<g id="Frame">
<path id="Vector" d="M10 3.5C10 3.36739 10.0527 3.24021 10.1464 3.14645C10.2402 3.05268 10.3674 3 10.5 3H13.5C13.6326 3 13.7598 3.05268 13.8536 3.14645C13.9473 3.24021 14 3.36739 14 3.5V11H16.365C16.462 11.0001 16.5569 11.0284 16.6381 11.0815C16.7193 11.1346 16.7833 11.2101 16.8224 11.299C16.8614 11.3878 16.8737 11.4861 16.8578 11.5818C16.842 11.6775 16.7986 11.7665 16.733 11.838L12.738 16.196C12.6443 16.2981 12.5304 16.3797 12.4036 16.4355C12.2767 16.4913 12.1396 16.5201 12.001 16.5201C11.8624 16.5201 11.7253 16.4913 11.5984 16.4355C11.4716 16.3797 11.3577 16.2981 11.264 16.196L7.27 11.838C7.20441 11.7665 7.16105 11.6775 7.14518 11.5818C7.12932 11.4861 7.14164 11.3878 7.18065 11.299C7.21966 11.2101 7.28367 11.1346 7.36488 11.0815C7.44608 11.0284 7.54098 11.0001 7.638 11H10V3.5Z" fill="var(--fill-0, #C5C7CA)"/>
<path id="Vector_2" d="M3.5 14C3.36739 14 3.24021 14.0527 3.14645 14.1464C3.05268 14.2402 3 14.3674 3 14.5V19C3 19.5304 3.21071 20.0391 3.58579 20.4142C3.96086 20.7893 4.46957 21 5 21H19C19.5304 21 20.0391 20.7893 20.4142 20.4142C20.7893 20.0391 21 19.5304 21 19V14.5C21 14.3674 20.9473 14.2402 20.8536 14.1464C20.7598 14.0527 20.6326 14 20.5 14H18.5C18.3674 14 18.2402 14.0527 18.1464 14.1464C18.0527 14.2402 18 14.3674 18 14.5V18H6V14.5C6 14.3674 5.94732 14.2402 5.85355 14.1464C5.75978 14.0527 5.63261 14 5.5 14H3.5Z" fill="var(--fill-0, #C5C7CA)"/>
</g>
</svg>
