<svg preserveAspectRatio="none" width="100%" height="100%" overflow="visible" style="display: block;" viewBox="0 0 66.0013 66.0013" fill="none" xmlns="http://www.w3.org/2000/svg">
<path id="Vector" d="M53.9744 35.1438L54.7076 35.8238V35.8238L53.9744 35.1438ZM30.8581 12.0271L31.5381 12.7603V12.7603L30.8581 12.0271ZM64.9501 7.2361L63.9585 7.10642L64.9501 7.2361ZM58.7653 1.05125L58.895 2.04281V2.04281L58.7653 1.05125ZM16.6327 41.7232L15.9256 42.4303V42.4303L16.6327 41.7232ZM15.3686 34.6263L16.2665 35.0665V35.0665L15.3686 34.6263ZM24.2788 49.3694L24.9859 48.6623V48.6623L24.2788 49.3694ZM31.3756 50.6336L30.9354 49.7357V49.7357L31.3756 50.6336ZM14.2281 53.1883C14.6186 52.7978 14.6186 52.1646 14.2281 51.7741C13.8375 51.3836 13.2044 51.3836 12.8138 51.7741L13.521 52.4812L14.2281 53.1883ZM3.56732 61.0208C3.1768 61.4113 3.17681 62.0445 3.56734 62.435C3.95786 62.8255 4.59103 62.8255 4.98155 62.435L4.27444 61.7279L3.56732 61.0208ZM44.7275 53.6365L44.0204 52.9294V52.9294L44.7275 53.6365ZM34.3251 64.0391L35.0322 64.7462V64.7462L34.3251 64.0391ZM28.7772 62.1897L29.7672 62.0483L29.7661 62.0407L29.7649 62.033L28.7772 62.1897ZM45.6521 50.8625L46.6421 50.7211L46.6403 50.7093L45.6521 50.8625ZM12.3646 21.2733L13.0717 21.9804V21.9804L12.3646 21.2733ZM1.96225 31.6758L1.25513 30.9687H1.25513L1.96225 31.6758ZM3.81155 37.2238L3.96826 36.2361L3.96063 36.2349L3.95298 36.2338L3.81155 37.2238ZM15.1385 20.3486L14.9971 21.3386L15.0047 21.3396L15.1385 20.3486ZM7.293 46.2529C7.68353 45.8624 7.68352 45.2292 7.29299 44.8387C6.90247 44.4482 6.2693 44.4482 5.87878 44.8387L6.58589 45.5458L7.293 46.2529ZM1.25552 49.462C0.864999 49.8526 0.865004 50.4857 1.25553 50.8763C1.64606 51.2668 2.27922 51.2668 2.66975 50.8762L1.96263 50.1691L1.25552 49.462ZM21.1628 60.1229C21.5533 59.7324 21.5533 59.0992 21.1628 58.7087C20.7722 58.3182 20.1391 58.3182 19.7486 58.7087L20.4557 59.4158L21.1628 60.1229ZM15.1253 63.3321C14.7348 63.7226 14.7348 64.3558 15.1253 64.7463C15.5158 65.1368 16.149 65.1368 16.5395 64.7463L15.8324 64.0392L15.1253 63.3321ZM20.0072 27.5015C19.6167 27.1109 18.9835 27.1109 18.593 27.5015C18.2025 27.892 18.2025 28.5251 18.593 28.9157L19.3001 28.2086L20.0072 27.5015ZM37.086 47.409C37.4765 47.7995 38.1097 47.7995 38.5002 47.409C38.8908 47.0185 38.8908 46.3853 38.5002 45.9948L37.7931 46.7019L37.086 47.409ZM38.9487 17.8061L39.6559 18.5132V18.5132L38.9487 17.8061ZM48.1953 27.0527L48.9024 27.7598V27.7598L48.1953 27.0527ZM24.2788 49.3694L24.9859 48.6623L17.3398 41.0161L16.6327 41.7232L15.9256 42.4303L23.5716 50.0765L24.2788 49.3694ZM53.9744 35.1438L53.2412 34.4638C46.8541 41.3505 36.5887 46.9641 30.9354 49.7357L31.3756 50.6336L31.8158 51.5315C37.4898 48.7498 48.0498 43.0024 54.7076 35.8238L53.9744 35.1438ZM15.3686 34.6263L16.2665 35.0665C19.038 29.4131 24.6515 19.1475 31.5381 12.7603L30.8581 12.0271L30.178 11.2939C22.9996 17.9518 17.2523 28.512 14.4706 34.1861L15.3686 34.6263ZM64.9501 7.2361L63.9585 7.10642C62.9606 14.7364 60.2829 26.8713 53.2412 34.4638L53.9744 35.1438L54.7076 35.8238C62.2067 27.7381 64.9375 15.0433 65.9416 7.36578L64.9501 7.2361ZM30.8581 12.0271L31.5381 12.7603C39.1305 5.71851 51.2652 3.04071 58.895 2.04281L58.7653 1.05125L58.6356 0.0596954C50.9582 1.06382 38.2637 3.79466 30.178 11.2939L30.8581 12.0271ZM64.9501 7.2361L65.9416 7.36578C66.508 3.03532 62.9661 -0.506681 58.6356 0.0596954L58.7653 1.05125L58.895 2.04281C61.9229 1.6468 64.3545 4.07847 63.9585 7.10642L64.9501 7.2361ZM16.6327 41.7232L17.3398 41.0161C15.7416 39.4178 15.2952 37.0477 16.2665 35.0665L15.3686 34.6263L14.4706 34.1861C13.0995 36.9829 13.7612 40.2659 15.9256 42.4303L16.6327 41.7232ZM24.2788 49.3694L23.5716 50.0765C25.7361 52.241 29.019 52.9026 31.8158 51.5315L31.3756 50.6336L30.9354 49.7357C28.9542 50.707 26.5841 50.2606 24.9859 48.6623L24.2788 49.3694ZM13.521 52.4812L12.8138 51.7741L3.56732 61.0208L4.27444 61.7279L4.98155 62.435L14.2281 53.1883L13.521 52.4812ZM44.7275 53.6365L44.0204 52.9294L33.618 63.332L34.3251 64.0391L35.0322 64.7462L45.4346 54.3436L44.7275 53.6365ZM28.7772 62.1897L29.7649 62.033L27.9888 50.838L27.0011 50.9947L26.0135 51.1514L27.7896 62.3464L28.7772 62.1897ZM44.448 43.0991L43.4598 43.2523L44.6639 51.0158L45.6521 50.8625L46.6403 50.7093L45.4362 42.9458L44.448 43.0991ZM34.3251 64.0391L33.618 63.332C32.2958 64.6542 30.0316 63.8994 29.7672 62.0483L28.7772 62.1897L27.7873 62.3311C28.2848 65.8138 32.5447 67.2338 35.0322 64.7462L34.3251 64.0391ZM44.7275 53.6365L45.4346 54.3436C46.3847 53.3935 46.8321 52.0514 46.6421 50.7211L45.6521 50.8625L44.6622 51.004C44.7632 51.711 44.5254 52.4244 44.0204 52.9294L44.7275 53.6365ZM12.3646 21.2733L11.6575 20.5662L1.25513 30.9687L1.96225 31.6758L2.66936 32.3829L13.0717 21.9804L12.3646 21.2733ZM3.81155 37.2238L3.65484 38.2114L14.8506 39.9879L15.0073 39.0002L15.164 38.0126L3.96826 36.2361L3.81155 37.2238ZM23.0011 21.4102L23.1349 20.4192L15.2723 19.3576L15.1385 20.3486L15.0047 21.3396L22.8673 22.4012L23.0011 21.4102ZM1.96225 31.6758L1.25513 30.9687C-1.23242 33.4563 0.187505 37.7162 3.67013 38.2137L3.81155 37.2238L3.95298 36.2338C2.10191 35.9694 1.34714 33.7051 2.66936 32.3829L1.96225 31.6758ZM12.3646 21.2733L13.0717 21.9804C13.5767 21.4753 14.2901 21.2375 14.9971 21.3386L15.1385 20.3486L15.28 19.3587C13.9497 19.1686 12.6076 19.616 11.6575 20.5662L12.3646 21.2733ZM6.58589 45.5458L5.87878 44.8387L1.25552 49.462L1.96263 50.1691L2.66975 50.8762L7.293 46.2529L6.58589 45.5458ZM20.4557 59.4158L19.7486 58.7087L15.1253 63.3321L15.8324 64.0392L16.5395 64.7463L21.1628 60.1229L20.4557 59.4158ZM19.3001 28.2086L18.593 28.9157L37.086 47.409L37.7931 46.7019L38.5002 45.9948L20.0072 27.5015L19.3001 28.2086ZM38.9487 17.8061L38.2416 17.099C35.2978 20.0429 35.2978 24.8159 38.2416 27.7598L38.9487 27.0527L39.6559 26.3456C37.493 24.1828 37.493 20.676 39.6559 18.5132L38.9487 17.8061ZM38.9487 27.0527L38.2416 27.7598C41.1855 30.7038 45.9585 30.7038 48.9024 27.7598L48.1953 27.0527L47.4882 26.3456C45.3253 28.5085 41.8187 28.5085 39.6559 26.3456L38.9487 27.0527ZM48.1953 27.0527L48.9024 27.7598C51.8463 24.8159 51.8463 20.0429 48.9024 17.099L48.1953 17.8061L47.4882 18.5132C49.651 20.676 49.651 24.1828 47.4882 26.3456L48.1953 27.0527ZM48.1953 17.8061L48.9024 17.099C45.9585 14.155 41.1855 14.155 38.2416 17.099L38.9487 17.8061L39.6559 18.5132C41.8187 16.3503 45.3253 16.3503 47.4882 18.5132L48.1953 17.8061Z" fill="var(--stroke-0, #0266FF)"/>
</svg>
