<svg preserveAspectRatio="none" width="100%" height="100%" overflow="visible" style="display: block;" viewBox="0 0 66 66" fill="none" xmlns="http://www.w3.org/2000/svg">
<path id="Vector" d="M33 18.7778V65M33 18.7778C31.7139 13.4779 29.4994 8.94845 26.6453 5.77724C23.7912 2.60604 20.43 0.941802 17 1.00156C14.6425 1.00156 12.3816 1.93807 10.7146 3.60506C9.04762 5.27205 8.11111 7.53297 8.11111 9.89045C8.11111 12.2479 9.04762 14.5089 10.7146 16.1758C12.3816 17.8428 14.6425 18.7793 17 18.7793M33 18.7778C34.2861 13.4779 36.5006 8.94845 39.3547 5.77724C42.2088 2.60604 45.57 0.941802 49 1.00156C51.3575 1.00156 53.6184 1.93807 55.2854 3.60506C56.9524 5.27205 57.8889 7.53297 57.8889 9.89045C57.8889 12.2479 56.9524 14.5089 55.2854 16.1758C53.6184 17.8428 51.3575 18.7793 49 18.7793M57.8889 33V57.8889C57.8889 59.7749 57.1397 61.5836 55.8061 62.9172C54.4725 64.2508 52.6638 65 50.7778 65H15.2222C13.3362 65 11.5275 64.2508 10.1939 62.9172C8.86032 61.5836 8.11111 59.7749 8.11111 57.8889V33M1 22.3333C1 21.3903 1.3746 20.486 2.0414 19.8192C2.70819 19.1524 3.61256 18.7778 4.55556 18.7778H61.4444C62.3874 18.7778 63.2918 19.1524 63.9586 19.8192C64.6254 20.486 65 21.3903 65 22.3333V29.4445C65 30.3874 64.6254 31.2918 63.9586 31.9586C63.2918 32.6254 62.3874 33 61.4444 33H4.55556C3.61256 33 2.70819 32.6254 2.0414 31.9586C1.3746 31.2918 1 30.3874 1 29.4445V22.3333Z" stroke="var(--stroke-0, #0266FF)" stroke-width="2" stroke-linecap="round" stroke-linejoin="round"/>
</svg>
