<svg preserveAspectRatio="none" width="100%" height="100%" overflow="visible" style="display: block;" viewBox="0 0 16 16" fill="none" xmlns="http://www.w3.org/2000/svg">
<g id="Frame">
<path id="Vector" fill-rule="evenodd" clip-rule="evenodd" d="M2.996 5.26133C3.12102 5.13635 3.29056 5.06614 3.46733 5.06614C3.64411 5.06614 3.81365 5.13635 3.93867 5.26133L8 9.32533L12.0627 5.26267C12.1247 5.20077 12.1982 5.15169 12.2792 5.11822C12.3601 5.08476 12.4469 5.06757 12.5345 5.06763C12.6221 5.06769 12.7088 5.08501 12.7897 5.11858C12.8706 5.15216 12.9441 5.20135 13.006 5.26333C13.0679 5.32532 13.117 5.39889 13.1504 5.47984C13.1839 5.56079 13.2011 5.64754 13.201 5.73514C13.201 5.82273 13.1837 5.90946 13.1501 5.99037C13.1165 6.07127 13.0673 6.14477 13.0053 6.20667L8.472 10.74C8.34698 10.865 8.17744 10.9352 8.00067 10.9352C7.82389 10.9352 7.65435 10.865 7.52933 10.74L2.996 6.20667C2.93392 6.14474 2.88466 6.07117 2.85105 5.99018C2.81744 5.90918 2.80014 5.82236 2.80014 5.73467C2.80014 5.64698 2.81744 5.56015 2.85105 5.47915C2.88466 5.39816 2.93392 5.32326 2.996 5.26133Z" fill="var(--fill-0, white)"/>
</g>
</svg>
