<svg preserveAspectRatio="none" width="100%" height="100%" overflow="visible" style="display: block;" viewBox="0 0 16 16" fill="none" xmlns="http://www.w3.org/2000/svg">
<g id="Frame">
<path id="Vector" d="M11.6267 6.87L8.414 10.8233C8.36399 10.8849 8.30088 10.9346 8.22926 10.9686C8.15764 11.0027 8.07932 11.0204 8 11.0204C7.92068 11.0204 7.84236 11.0027 7.77074 10.9686C7.69912 10.9346 7.63601 10.8849 7.586 10.8233L4.37333 6.87C4.30969 6.79181 4.26952 6.69718 4.25747 6.59708C4.24541 6.49699 4.26198 6.39553 4.30525 6.30447C4.34851 6.2134 4.4167 6.13647 4.5019 6.08258C4.58711 6.02869 4.68585 6.00006 4.78667 6H11.2133C11.3142 6.00006 11.4129 6.02869 11.4981 6.08258C11.5833 6.13647 11.6515 6.2134 11.6948 6.30447C11.738 6.39553 11.7546 6.49699 11.7425 6.59708C11.7305 6.69718 11.6903 6.79181 11.6267 6.87Z" fill="var(--fill-0, #84888C)"/>
</g>
</svg>
