<svg preserveAspectRatio="none" width="100%" height="100%" overflow="visible" style="display: block;" viewBox="0 0 24 24" fill="none" xmlns="http://www.w3.org/2000/svg">
<g id="Frame">
<path id="Vector" d="M20 10.299C18.4272 10.3029 16.8929 9.81243 15.614 8.897V15.281C15.6136 16.4635 15.2522 17.6177 14.5781 18.5893C13.9041 19.5608 12.9494 20.3034 11.8419 20.7178C10.7344 21.1322 9.52678 21.1986 8.38051 20.9081C7.23424 20.6176 6.20397 19.9841 5.42746 19.0923C4.65096 18.2005 4.16522 17.0929 4.03521 15.9175C3.90519 14.7422 4.13709 13.5552 4.69991 12.5152C5.26272 11.4752 6.12962 10.6319 7.18468 10.0979C8.23975 9.56387 9.43269 9.3647 10.604 9.527V12.739C10.0681 12.5706 9.49275 12.5758 8.96002 12.7539C8.42729 12.932 7.96446 13.2739 7.63761 13.7307C7.31077 14.1875 7.13662 14.736 7.14005 15.2977C7.14347 15.8594 7.32429 16.4056 7.65668 16.8584C7.98907 17.3112 8.45604 17.6474 8.9909 17.819C9.52576 17.9906 10.1012 17.9888 10.6349 17.8139C11.1687 17.6389 11.6336 17.2998 11.9631 16.845C12.2927 16.3901 12.4701 15.8427 12.47 15.281V2.801H15.614C15.612 3.066 15.634 3.331 15.68 3.592C15.7892 4.17559 16.0164 4.73076 16.3476 5.22355C16.6787 5.71634 17.1069 6.13638 17.606 6.458C18.316 6.928 19.149 7.178 20 7.178V10.299Z" fill="var(--fill-0, #C5C7CA)"/>
</g>
</svg>
