<svg preserveAspectRatio="none" width="100%" height="100%" overflow="visible" style="display: block;" viewBox="0 0 12 12" fill="none" xmlns="http://www.w3.org/2000/svg">
<g id="Frame">
<path id="Vector" fill-rule="evenodd" clip-rule="evenodd" d="M2.247 3.946C2.34076 3.85226 2.46792 3.79961 2.6005 3.79961C2.73308 3.79961 2.86024 3.85226 2.954 3.946L6 6.994L9.047 3.947C9.09349 3.90058 9.14866 3.86377 9.20938 3.83867C9.27009 3.81357 9.33516 3.80068 9.40085 3.80072C9.46655 3.80077 9.5316 3.81375 9.59228 3.83894C9.65295 3.86412 9.70808 3.90101 9.7545 3.9475C9.80092 3.99399 9.83773 4.04916 9.86283 4.10988C9.88793 4.17059 9.90083 4.23566 9.90078 4.30135C9.90073 4.36705 9.88775 4.4321 9.86256 4.49277C9.83738 4.55345 9.80049 4.60858 9.754 4.655L6.354 8.055C6.26024 8.14874 6.13308 8.20139 6.0005 8.20139C5.86792 8.20139 5.74076 8.14874 5.647 8.055L2.247 4.655C2.20044 4.60855 2.16349 4.55338 2.13829 4.49263C2.11308 4.43189 2.10011 4.36677 2.10011 4.301C2.10011 4.23523 2.11308 4.17011 2.13829 4.10937C2.16349 4.04862 2.20044 3.99245 2.247 3.946Z" fill="var(--fill-0, white)"/>
</g>
</svg>
