<svg preserveAspectRatio="none" width="100%" height="100%" overflow="visible" style="display: block;" viewBox="0 0 8 8" fill="none" xmlns="http://www.w3.org/2000/svg">
<g id="Frame">
<path id="Vector" d="M4.416 6.776C4.37034 6.84448 4.30848 6.90063 4.23591 6.93946C4.16334 6.97829 4.08231 6.99861 4 6.99861C3.91769 6.99861 3.83666 6.97829 3.76409 6.93946C3.69152 6.90063 3.62966 6.84448 3.584 6.776L0.518 2.176C0.468163 2.10072 0.43964 2.01335 0.435458 1.92316C0.431276 1.83297 0.451592 1.74333 0.494249 1.66376C0.536906 1.58419 0.600312 1.51765 0.677737 1.47121C0.755162 1.42478 0.843716 1.40017 0.934 1.4H7.066C7.15644 1.40005 7.24518 1.42462 7.32276 1.47111C7.40034 1.5176 7.46385 1.58427 7.50654 1.664C7.54923 1.74373 7.56949 1.83355 7.56517 1.92389C7.56085 2.01423 7.5321 2.10171 7.482 2.177L4.416 6.776Z" fill="var(--fill-0, #A0A3A7)"/>
</g>
</svg>
