<svg preserveAspectRatio="none" width="100%" height="100%" overflow="visible" style="display: block;" viewBox="0 0 24 24" fill="none" xmlns="http://www.w3.org/2000/svg">
<g id="Frame">
<path id="Vector" d="M4.9 13.9C4.39609 13.9 3.91282 13.6998 3.5565 13.3435C3.20018 12.9872 3 12.5039 3 12C3 11.4961 3.20018 11.0128 3.5565 10.6565C3.91282 10.3002 4.39609 10.1 4.9 10.1C5.40391 10.1 5.88718 10.3002 6.2435 10.6565C6.59982 11.0128 6.8 11.4961 6.8 12C6.8 12.5039 6.59982 12.9872 6.2435 13.3435C5.88718 13.6998 5.40391 13.9 4.9 13.9ZM12 13.9C11.4961 13.9 11.0128 13.6998 10.6565 13.3435C10.3002 12.9872 10.1 12.5039 10.1 12C10.1 11.4961 10.3002 11.0128 10.6565 10.6565C11.0128 10.3002 11.4961 10.1 12 10.1C12.5039 10.1 12.9872 10.3002 13.3435 10.6565C13.6998 11.0128 13.9 11.4961 13.9 12C13.9 12.5039 13.6998 12.9872 13.3435 13.3435C12.9872 13.6998 12.5039 13.9 12 13.9ZM17.2 12C17.2 12.5039 17.4002 12.9872 17.7565 13.3435C18.1128 13.6998 18.5961 13.9 19.1 13.9C19.6039 13.9 20.0872 13.6998 20.4435 13.3435C20.7998 12.9872 21 12.5039 21 12C21 11.4961 20.7998 11.0128 20.4435 10.6565C20.0872 10.3002 19.6039 10.1 19.1 10.1C18.5961 10.1 18.1128 10.3002 17.7565 10.6565C17.4002 11.0128 17.2 11.4961 17.2 12Z" fill="var(--fill-0, #C5C7CA)"/>
</g>
</svg>
