<svg preserveAspectRatio="none" width="100%" height="100%" overflow="visible" style="display: block;" viewBox="0 0 24 24" fill="none" xmlns="http://www.w3.org/2000/svg">
<g id="Frame">
<path id="Vector" d="M19.273 4.957L17.945 4.817C13.9745 4.39467 9.97052 4.39434 6 4.816L4.728 4.956C3.96405 5.04739 3.26304 5.42469 2.766 6.012C2.25914 6.60975 1.98689 7.37139 2 8.155V15.845C1.98714 16.6283 2.25937 17.3895 2.766 17.987C3.26304 18.5743 3.96405 18.9516 4.728 19.043L6.055 19.183C10.0255 19.605 14.0295 19.605 18 19.183L19.273 19.043C20.0366 18.9514 20.7372 18.5741 21.234 17.987C21.7406 17.3895 22.0129 16.6283 22 15.845V8.155C22.0129 7.37173 21.7406 6.61049 21.234 6.013C20.737 5.42569 20.036 5.04839 19.272 4.957H19.273ZM14.727 12.581L11.191 15.02C11.0381 15.1075 10.8567 15.1308 10.6866 15.0847C10.5165 15.0385 10.3717 14.9268 10.284 14.774C10.2228 14.6721 10.1877 14.5567 10.182 14.438V9.562C10.1821 9.4348 10.2159 9.30989 10.28 9.2C10.343 9.09168 10.4343 9.00251 10.544 8.942C10.6528 8.88232 10.776 8.85424 10.8999 8.86096C11.0238 8.86768 11.1433 8.90891 11.245 8.98L14.782 11.419C14.876 11.482 14.952 11.568 15.006 11.669C15.0857 11.8223 15.1069 11.9994 15.0657 12.1672C15.0245 12.335 14.9236 12.482 14.782 12.581H14.727Z" fill="var(--fill-0, #C5C7CA)"/>
</g>
</svg>
